<svg xmlns="http://www.w3.org/2000/svg" viewBox="0 0 56 72" fill="none">
  <path d="m15 40-5 27 13-7 5 9 5-9 13 7-5-27" fill="#d5a65e" stroke="#9f6b29" stroke-width="1.5"/>
  <path d="m28 3 7 5 9 1 3 8 6 7-3 9v9l-9 4-6 7-7-2-7 2-6-7-9-4v-9l-3-9 6-7 3-8 9-1Z" fill="#f9d995" stroke="#ac792f" stroke-width="1.5"/>
  <circle cx="28" cy="28" r="18" fill="#fff0c7" stroke="#c3964f"/>
  <path d="m16 23 7 5 5-10 5 10 7-5-3 14H19Z" fill="#b27a28" stroke="#96611e" stroke-linejoin="round"/>
  <path d="M20 41h16" stroke="#b27a28" stroke-width="2" stroke-linecap="round"/>
</svg>
